<?xml version="1.0" encoding="UTF-8" standalone="no"?>
<!-- Created with Inkscape (http://www.inkscape.org/) -->

<svg
   width="119.41528mm"
   height="130.79236mm"
   viewBox="0 0 119.41528 130.79236"
   version="1.1"
   id="svg5"
   inkscape:version="1.2.2 (732a01da63, 2022-12-09)"
   sodipodi:docname="fcs_setup_clean.svg"
   xmlns:inkscape="http://www.inkscape.org/namespaces/inkscape"
   xmlns:sodipodi="http://sodipodi.sourceforge.net/DTD/sodipodi-0.dtd"
   xmlns="http://www.w3.org/2000/svg"
   xmlns:svg="http://www.w3.org/2000/svg">
  <sodipodi:namedview
     id="namedview7"
     pagecolor="#ffffff"
     bordercolor="#000000"
     borderopacity="0.25"
     inkscape:showpageshadow="2"
     inkscape:pageopacity="0.0"
     inkscape:pagecheckerboard="0"
     inkscape:deskcolor="#d1d1d1"
     inkscape:document-units="mm"
     showgrid="false"
     inkscape:zoom="0.914906"
     inkscape:cx="254.67097"
     inkscape:cy="154.11419"
     inkscape:window-width="2560"
     inkscape:window-height="1377"
     inkscape:window-x="-8"
     inkscape:window-y="-8"
     inkscape:window-maximized="1"
     inkscape:current-layer="g79" />
  <defs
     id="defs2">
    <linearGradient
       x1="622.5"
       y1="185"
       x2="622.5"
       y2="240"
       gradientUnits="userSpaceOnUse"
       spreadMethod="reflect"
       id="fill0"
       gradientTransform="translate(0,4)">
      <stop
         offset="0"
         stop-color="#4E79A7"
         id="stop9" />
      <stop
         offset="0.5"
         stop-color="#4E79A7"
         id="stop11" />
      <stop
         offset="1"
         stop-color="#F7FAFD"
         stop-opacity="0"
         id="stop13" />
    </linearGradient>
    <linearGradient
       x1="34.5"
       y1="0"
       x2="34.5"
       y2="55"
       gradientUnits="userSpaceOnUse"
       spreadMethod="reflect"
       id="fill1"
       gradientTransform="matrix(1,0,0,-1,588,190)">
      <stop
         offset="0"
         stop-color="#4E79A7"
         id="stop16" />
      <stop
         offset="0.5"
         stop-color="#4E79A7"
         id="stop18" />
      <stop
         offset="1"
         stop-color="#F7FAFD"
         stop-opacity="0"
         id="stop20" />
    </linearGradient>
  </defs>
  <g
     inkscape:label="Layer 1"
     inkscape:groupmode="layer"
     id="layer1"
     transform="translate(-1.0226451,-54.618427)">
    <g
       transform="matrix(0.26458333,0,0,0.26458333,-60.581174,20.531274)"
       id="g79">
      <rect
         x="430"
         y="505"
         width="2"
         height="98"
         fill="#f28e2b"
         id="rect25" />
      <rect
         x="422"
         y="142"
         width="18"
         height="247"
         fill="#4e79a7"
         id="rect27" />
      <rect
         x="319"
         y="384"
         width="112"
         height="17"
         fill="#4e79a7"
         id="rect29" />
      <rect
         x="428"
         y="150"
         width="6"
         height="342"
         fill="#f28e2b"
         id="rect31" />
      <rect
         x="233.5"
         y="375.5"
         width="86"
         height="34"
         stroke="#223f59"
         stroke-width="1.33333"
         stroke-miterlimit="8"
         fill="#ffffff"
         id="rect33" />
      <text
         font-family="'DejaVu Sans', 'DejaVu Sans_MSFontService', sans-serif"
         font-weight="400"
         font-size="19px"
         transform="translate(250.684,399)"
         id="text35">Laser</text>
      <rect
         x="369.5"
         y="129.5"
         width="124"
         height="35"
         stroke="#223f59"
         stroke-width="1.33333"
         stroke-miterlimit="8"
         fill="#ffffff"
         id="rect37" />
      <text
         font-family="'DejaVu Sans', 'DejaVu Sans_MSFontService', sans-serif"
         font-weight="400"
         font-size="19px"
         transform="translate(395.904,153)"
         id="text39">Sample</text>
      <rect
         x="369.5"
         y="213.5"
         width="124"
         height="35"
         stroke="#223f59"
         stroke-width="1.33333"
         stroke-miterlimit="8"
         fill="#ffffff"
         id="rect41" />
      <text
         font-family="'DejaVu Sans', 'DejaVu Sans_MSFontService', sans-serif"
         font-weight="400"
         font-size="19px"
         transform="translate(386.654,237)"
         id="text43">Objective</text>
      <path
         d="m 369.5,213.5 8.75,-35 h 106.5 l 8.75,35 z"
         stroke="#223f59"
         stroke-width="1.33333"
         stroke-miterlimit="8"
         fill="#ffffff"
         fill-rule="evenodd"
         id="path45" />
      <path
         d="m 381.413,441.806 101.232,-101.231 8.287,8.287 -101.231,101.232 z"
         fill="#d9d9d9"
         fill-rule="evenodd"
         id="path47" />
      <rect
         x="369.5"
         y="477.5"
         width="124"
         height="35"
         stroke="#223f59"
         stroke-width="1.33333"
         stroke-miterlimit="8"
         fill="#ffffff"
         id="rect49" />
      <text
         font-family="'DejaVu Sans', 'DejaVu Sans_MSFontService', sans-serif"
         font-weight="400"
         font-size="19px"
         transform="translate(407.154,501)"
         id="text51">Filter</text>
      <rect
         x="369.5"
         y="587.5"
         width="124"
         height="35"
         stroke="#223f59"
         stroke-width="1.33333"
         stroke-miterlimit="8"
         fill="#ffffff"
         id="rect53" />
      <text
         font-family="'DejaVu Sans', 'DejaVu Sans_MSFontService', sans-serif"
         font-weight="400"
         font-size="19px"
         transform="translate(390.154,611)"
         id="text55">Detector</text>
      <text
         font-family="'DejaVu Sans', 'DejaVu Sans_MSFontService', sans-serif"
         font-weight="400"
         font-size="19px"
         transform="translate(468.945,399)"
         id="text57">Dichroic</text>
      <path
         d="m 588,244 13.75,-55 h 41.5 L 657,244 Z"
         fill="url(#fill0)"
         fill-rule="evenodd"
         id="path59"
         style="fill:url(#fill0)" />
      <path
         d="m 588,135 13.75,55 h 41.5 L 657,135 Z"
         fill="url(#fill1)"
         fill-rule="evenodd"
         id="path61"
         style="fill:url(#fill1)" />
      <path
         d="m 562.5,175 c 0,-4.142 3.134,-7.5 7,-7.5 3.866,0 7,3.358 7,7.5 0,4.142 -3.134,7.5 -7,7.5 -3.866,0 -7,-3.358 -7,-7.5 z"
         stroke="#000000"
         stroke-width="1.33333"
         stroke-miterlimit="8"
         fill="#595959"
         fill-rule="evenodd"
         id="path63" />
      <path
         d="m 669.5,164.5 c 0,-3.866 3.134,-7 7,-7 3.866,0 7,3.134 7,7 0,3.866 -3.134,7 -7,7 -3.866,0 -7,-3.134 -7,-7 z"
         stroke="#000000"
         stroke-width="1.33333"
         stroke-miterlimit="8"
         fill="#595959"
         fill-rule="evenodd"
         id="path65" />
      <path
         d="m 605.5,225.5 c 0,-3.866 3.134,-7 7,-7 3.866,0 7,3.134 7,7 0,3.866 -3.134,7 -7,7 -3.866,0 -7,-3.134 -7,-7 z"
         stroke="#000000"
         stroke-width="1.33333"
         stroke-miterlimit="8"
         fill="#595959"
         fill-rule="evenodd"
         id="path67" />
      <path
         d="m 580.487,174.834 7.808,-0.156 -0.026,0.001 7.031,-0.413 -0.036,0.003 6.064,-0.689 -0.056,0.009 4.91,-0.983 -0.066,0.017 1.963,-0.609 -0.066,0.025 1.604,-0.689 -0.094,0.049 1.221,-0.772 -0.127,0.104 0.814,-0.857 -0.134,0.208 0.384,-0.945 -0.047,0.295 -0.07,-1.035 0.065,0.246 -0.546,-1.128 0.093,0.143 -1.047,-1.223 0.015,0.017 -2.346,-2.553 -1.596,-2.343 -0.88,-2.137 -0.198,-1.947 0.454,-1.723 1.015,-1.435 1.446,-1.14 1.792,-0.888 4.233,-1.097 4.764,-0.357 3.457,0.212 -0.081,1.331 -3.412,-0.209 0.09,-0.001 -4.659,0.349 0.118,-0.02 -4.109,1.065 0.129,-0.048 -1.668,0.827 0.117,-0.074 -1.315,1.037 0.131,-0.138 -0.89,1.258 0.101,-0.215 -0.393,1.489 0.019,-0.238 0.175,1.731 -0.046,-0.187 0.816,1.983 -0.065,-0.121 1.529,2.245 -0.06,-0.076 2.322,2.527 1.111,1.297 0.641,1.322 0.088,1.318 -0.489,1.205 -0.958,1.008 -1.336,0.845 -1.684,0.724 -2.029,0.628 -4.971,0.996 -6.111,0.694 -7.061,0.415 -7.822,0.156 z m 41.758,-23.125 -1.948,-4.395 7.203,5.303 -8.564,2.58 z"
         fill="#223f59"
         id="path69" />
      <path
         d="m 669.14,158.751 -7.704,-4.942 0.024,0.015 -7.263,-4.226 0.043,0.023 -3.328,-1.621 0.052,0.023 -3.053,-1.174 0.088,0.027 -2.722,-0.637 0.148,0.017 -2.336,-0.011 0.225,-0.038 -1.914,0.675 0.211,-0.121 -1.528,1.301 0.126,-0.144 -1.197,1.838 0.06,-0.115 -0.921,2.285 0.032,-0.104 -1.237,5.554 0.011,-0.061 -0.124,0.978 -1.323,-0.168 0.128,-1.009 1.255,-5.638 0.967,-2.396 1.285,-1.973 1.695,-1.443 2.14,-0.755 2.527,0.012 2.84,0.665 3.123,1.201 3.376,1.644 7.297,4.246 7.717,4.95 z m -32.969,-0.542 4.304,-2.142 -4.975,7.433 -2.961,-8.44 z"
         fill="#223f59"
         id="path71" />
      <path
         d="m 615.95,216.679 2.321,-3.39 2.707,-3.05 2.977,-2.667 3.156,-2.282 3.248,-1.891 3.25,-1.496 3.167,-1.098 3.001,-0.692 2.753,-0.277 2.433,0.153 2.042,0.619 1.542,1.153 0.837,1.703 -0.02,2.123 -0.882,2.468 -1.756,2.813 -1.885,2.809 0.039,-0.065 -1.28,2.48 0.042,-0.101 -0.704,2.184 0.03,-0.152 -0.153,1.909 -0.014,-0.2 0.374,1.656 -0.082,-0.203 0.877,1.426 -0.123,-0.146 1.356,1.218 -0.115,-0.083 1.81,1.033 -0.089,-0.043 2.24,0.871 -0.064,-0.021 2.647,0.729 -0.046,-0.01 3.029,0.612 -0.032,-0.006 3.385,0.517 -0.029,-0.004 7.747,0.836 -0.018,-0.002 3.57,0.291 -0.108,1.329 -3.578,-0.291 -7.77,-0.839 -3.416,-0.521 -3.066,-0.62 -2.702,-0.745 -2.318,-0.901 -1.915,-1.093 -1.48,-1.33 -0.986,-1.602 -0.421,-1.863 0.167,-2.088 0.745,-2.309 1.322,-2.564 1.901,-2.832 -0.012,0.018 1.712,-2.742 -0.062,0.129 0.82,-2.295 -0.039,0.218 0.017,-1.852 0.068,0.3 -0.696,-1.417 0.199,0.24 -1.32,-0.987 0.206,0.104 -1.856,-0.563 0.152,0.028 -2.301,-0.145 0.109,-0.002 -2.658,0.268 0.083,-0.014 -2.924,0.675 0.068,-0.02 -3.103,1.075 0.061,-0.025 -3.192,1.47 0.057,-0.029 -3.191,1.858 0.055,-0.036 -3.102,2.242 0.055,-0.044 -2.923,2.619 0.054,-0.054 -2.654,2.99 0.051,-0.066 -2.297,3.355 z m 53.234,12.388 -2.333,-4.203 7.649,4.636 -8.298,3.338 z"
         fill="#223f59"
         id="path73" />
      <path
         d="m 498.69322,132.81862 h 81.976"
         stroke="#000000"
         stroke-width="0.666667"
         stroke-miterlimit="8"
         stroke-dasharray="0.666667, 0.666667"
         fill="none"
         fill-rule="evenodd"
         id="path75" />
      <path
         d="m 499.5,164.5 81.143,69.815"
         stroke="#000000"
         stroke-width="0.666667"
         stroke-miterlimit="8"
         stroke-dasharray="0.666667, 0.666667"
         fill="none"
         fill-rule="evenodd"
         id="path77" />
    </g>
  </g>
</svg>
